<svg xmlns="http://www.w3.org/2000/svg" viewBox="600 1050 3300 1950">
  <path fill="#1f8e6e" d="M2351,1955c456,251,1191,74,1185-675,153,127,271,303,303,504,30,193-19,409-192,560-165,142-399,199-654,196l-642-585Z"/>
  <path fill="#7af0c8" d="M697,2168c650-368,1176,22,1692,242,350,149,834,220,1192-17-213,67-434-48-534-179-276-362-284-1092-1012-1025,229,94,290,338,227,514-102,282-430,208-645,199-289-14-614,25-920,266Z"/>
  <path fill="#c4f9e2" d="M697,2168c1079-498,1909,994,2955,450-1028,288-1964-1066-2955-450Z"/>
</svg>
